<svg version="1.1" id="Layer_1" xmlns="http://www.w3.org/2000/svg" xmlns:xlink="http://www.w3.org/1999/xlink" x="0px" y="0px" width="800px" height="800px" viewBox="0 0 800 800" enable-background="new 0 0 800 800" xml:space="preserve">
                <polygon points="208.873,388.745 208.921,388.767 208.94,388.754 "></polygon>
    <g>
                                    <g>
                                        <polygon fill="none" points="298.451,242.596 224.139,261.465 278.137,297.005 		"></polygon>
                                        <polygon fill="none" points="358.21,271.288 325.54,246.185 301.021,290.315 358.199,271.345 		"></polygon>
                                        <path fill="none" d="M488.755,390.459c11.555-3.131,24.543-4.433,37.459-3.934c10.021,0.388,19.246,2.049,27.434,4.298
                            l44.848-54.181l-52.565,0.372l-9.558-55.753l-49.837,33.567l-30.899-43.937l-20.469,100.158l53.611,19.391L488.755,390.459z"></path>
                                        <polygon fill="none" points="201.169,281.342 185.195,318.071 253.821,302.261 		"></polygon>
                                        <path fill="none" d="M301.975,379.198c13.802,0,25.208,2.396,34.214,5.507l16.437-84.656l-149.136,39.786l55.442,51.528
                            C270.359,384.728,285.926,379.198,301.975,379.198z"></path>
                                        <path fill="none" d="M448.773,432.177c-0.408-10.098,3.209-18.497,9.568-25.224l-51.32-18.821l7.051-47.325
                            c-14.722,0.332-32.917,5.473-47.372,16.539l-10.793,37.118c2.067,1.414,3.556,2.602,4.447,3.354
                            c16.471,13.398,13.19,27.883,13.19,27.883c-51.548-31.45-103.752-19.503-139.15,10.875l-0.615,1.117
                            c33.392,11.605,112.607,20.298,177.374,19.251c0.305,0.016,93.401,0,166.076-18.167c-8.74-7.779-27.593-20.595-59.507-23.947
                            C472.841,410.116,448.773,432.177,448.773,432.177z"></path>
                                        <path d="M596.854,383.568l68.086-71.623l-91.431-3.285l-11.39-86.167l-69.77,52.272l-56.478-80.302l-17.774,119.314
                            c-13.747-1.149-28.304,1.719-41.145,8.306l17.99-61.873l-71.103-55.198l-0.029,0.017l-0.176-0.137l-146.469,39.785l-0.296-0.017
                            l-33.58,84.507c0,0,41.404,31.684,74.115,56.533l-39.211,45.159l0.533,0.253l-0.944,0.691l69.01,210.486
                            c0,0,63.839,18.035,156.731,17.272c96.763-0.794,156.379-17.203,156.379-17.203l66.645-214.385l0.261-0.99l-29.398-43.311
                            L596.854,383.568z M455.636,270.891l30.899,43.937l49.837-33.567l9.558,55.753l52.565-0.372l-44.848,54.181
                            c-8.188-2.249-17.412-3.91-27.434-4.298c-12.916-0.499-25.904,0.802-37.459,3.934l0.023-0.018l-53.611-19.391L455.636,270.891z
                             M325.54,246.185l32.67,25.104l-0.011,0.057l-57.179,18.97L325.54,246.185z M298.451,242.596l-20.314,54.409l-53.998-35.54
                            L298.451,242.596z M201.169,281.342l52.652,20.919l-68.626,15.81L201.169,281.342z M203.489,339.835l149.136-39.786
                            l-16.437,84.656c-9.006-3.111-20.412-5.507-34.214-5.507c-16.049,0-31.615,5.53-43.043,12.165L203.489,339.835z M559.558,483.418
                            c-14.535,6.824-69.721,19.82-103.232,24.897l0.047,59.271l-55.329,32.086l-53.881-31.501c0,0-0.016-24.69-0.024-42.729
                            c14.904-2.226,21.622-12.369,21.622-12.369c-53.468-1.458-110.172-11.541-110.172-11.541l5.929,109.068l-41.168-138.874
                            c0,0,96.939,21.882,176.351,21.858c93.944-0.029,172.571-21.043,172.571-21.043S567.273,479.795,559.558,483.418z
                             M411.153,456.944c-64.767,1.046-143.982-7.646-177.374-19.251l0.615-1.117c35.398-30.378,87.603-42.325,139.15-10.875
                            c0,0,3.28-14.485-13.19-27.883c-0.892-0.752-2.38-1.94-4.447-3.354l10.793-37.118c14.455-11.066,32.65-16.207,47.372-16.539
                            l-7.051,47.325l51.32,18.821c-6.359,6.727-9.977,15.126-9.568,25.224c0,0,24.067-22.061,68.949-17.346
                            c31.914,3.352,50.767,16.167,59.507,23.947C504.555,456.944,411.458,456.96,411.153,456.944z"></path>
                                    </g>
        <path d="M422.973,567.822l-14.737-25.666c5.446-2.658,9.21-8.257,9.208-14.756c-0.003-9.06-7.307-16.402-16.31-16.4
                        c-9.004,0.004-16.301,7.35-16.296,16.409c0.003,6.691,3.987,12.433,9.693,14.984l-14.588,25.441l21.221,12.172L422.973,567.822z"></path>
                                </g>
    <polygon points="182.561,215.973 194.384,211.161 152.671,137.893 128.313,167.121 "></polygon>
    <polygon points="412.107,167.025 439.284,77.835 394.943,75.446 401.143,160.507 "></polygon>
    <polygon points="600.589,253.36 688.313,211.307 662.451,182.916 605.038,236.156 "></polygon>
    <polygon points="513.343,191.76 506.662,180.783 540.121,107.81 577.413,121.202 "></polygon>
    <polygon points="293.299,176.127 257.314,93.526 299.802,90.481 307.219,177.538 "></polygon>
            </svg>
