<svg version="1.1" id="Layer_1" xmlns="http://www.w3.org/2000/svg" xmlns:xlink="http://www.w3.org/1999/xlink" x="0px" y="0px" width="800px" height="800px" viewBox="0 0 800 800" enable-background="new 0 0 800 800" xml:space="preserve">
                <g>
                    <path d="M649.865,477.963c22.191-4.521,30.469-51.215-2.139-64.552c-40.328-16.497-84.454,7.469-84.454,7.469
                        s34.927-81.964,14.277-135.806c-21.395-55.774-80.735-60.161-108.878-21.473c0,0,43.068,81.642,23.609,132.212
                        c0,0-49.632,6.927-73.865,55.297c0,0-42.326-16.451-105.832-17.12c0,0-9.133,16.119-18.124,42.819l-44.598,0.262
                        c0,0-7.841-34.854-42.405-45.167c-40.166-11.986-84.1,13.871-76.617,61.528c6.267,39.904,47.306,42.945,47.306,42.945
                        s-44.013,17.674-28.062,58.95c14.433,37.345,88.197,30.942,97.819-25.606c5.361,0,17.648,0.037,29.433,0.076
                        c-0.405,12.364-0.082,25.222,1.271,38.466c0,0,61.414,2.18,133.396-22.005c0,0,43.477,62.595,158.933,73.265
                        c51.337,4.745,69.845-27.029,56.304-51.925c27.082-1.424,41.336-41.256,17.816-64.018
                        C667.264,536.314,677.125,494.501,649.865,477.963z M278.742,548.73l-43.49-0.081c-2.852,23.384-19.6,44.015-44.188,42.59
                        c-17.617-1.02-22.807-21.34-13.85-32.493c8.258-10.282,22.574-15.811,22.574-15.811c22.545-7.267,21.5-20.575,21.5-20.575
                        s-14.867,6.002-28.59,3.051c-23.016-4.947-36.914-19.883-36.914-39.09c0-23.473,26.014-42.678,55.592-26.673
                        c22.713,12.291,20.99,40.047,20.99,40.047l55.247,0.111C283.826,514.378,280.572,530.842,278.742,548.73z M353.203,552.117
                        c0,0-14.254,22.229-26.726,34.854c-8.196,3.557-19.894,2.146-19.599,2.313c5.701-7.291,23.518-35.033,23.518-35.033l-18.352-20.539
                        l21.113-25.874l-17.729-16.182l27.617-38.768c0,0,13.097-1.334,20.046,2.935c-2.405,4.001-27.261,33.876-27.261,33.876
                        l19.242,14.938l-23.519,27.474L353.203,552.117z M376.011,577.725l-17.817-6.402l15.322-14.938l24.234,5.335L376.011,577.725z
                         M376.188,535.579l-17.104-8.536l16.393-14.227l24.945,11.027L376.188,535.579z M378.863,491.657l-18.889-9.249l18.174-14.938
                        l22.45,13.16L378.863,491.657z M502.871,312.049c-1.527-21.296-10.262-37.971-10.262-37.971
                        c11.865-14.311,28.436-12.71,28.436-12.71C539.219,299.245,502.871,312.049,502.871,312.049z"></path>
                    <polygon points="456.725,340.857 455.299,330.188 383.611,351.444 408.795,377.134 	"></polygon>
                    <polygon points="441.4,274.172 375.119,251.232 375.297,291.066 445.5,285.375 	"></polygon>
                    <polygon points="471.066,221.089 430.978,154.404 403.449,182.678 462.781,227.491 	"></polygon>
                    <polygon points="531.736,213.888 519.174,213.622 522.648,140 561.136,140.267 	"></polygon>
                    <polygon points="577.706,240.205 625.455,186.147 649.33,219.223 585.188,247.674 	"></polygon>
                    <polygon points="602.668,298.46 670,289.999 669.645,323.429 602.293,310.982 	"></polygon>
                    <path d="M200.686,469.429c0,0-18.709-8.003-26.727,10.134c-5.667,12.818,3.027,23.83,5.701,25.076
                        C179.838,503.393,181.62,477.786,200.686,469.429z"></path>
                </g>
            </svg>
