<svg version="1.1" id="Layer_1" xmlns="http://www.w3.org/2000/svg" xmlns:xlink="http://www.w3.org/1999/xlink" x="0px" y="0px" width="800px" height="800px" viewBox="0 0 800 800" enable-background="new 0 0 800 800" xml:space="preserve">
                <g>
                    <path d="M677.903,373.749c-27.135-51.308-106.556-40.551-94.471,32.918c-11.451-2.863-10.974-28.147-20.318-41.467
                        c15.23-41.067,20.318-175.919-50.929-209.632c-2.896,6.247-6.394,13.87-8.431,19.719c21.471,36.734,14.475,50.251,14.475,50.251
                        c-7.943-16.879-14.677-27.289-19.313-33.404c-0.017,0.067-0.036,0.135-0.053,0.204c-14.787-18-33.933-31.608-56.809-38.337
                        c-14.479,44.821,11.175,111.973,41.481,142.275c0-0.001-5.306,1.38-11.271-3.39c-13.445-10.757-39.7-34.622-50.413-76.89
                        c-68.724-28.133-158.022,0.391-201.943,72.672c-5.424-4.774-16.324-11.384-36.709-14.112
                        c-8.457-17.552-24.598-29.969-49.208-27.708c0,0,11.032,5.788,20.511,18.909c4.952,6.192,17.451,24.937,11.455,50.266l-0.124,0.007
                        c-2.039,10.153-6.487,20.841-14.666,21.781c-17.188,1.973-15.888-28.233,6.297-36.485c0.859-9.872-8.823-23.561-9.876-23.229
                        c-51.429,16.166-50.24,96.038,4.532,88.497c21.366-2.942,34.167-22.331,36.507-42.321c1.049-5.102,1.599-12.298,1.663-17.631
                        c11.81,6.336,12.396,17.092,11.164,23.675c-5.361,17.88-8.347,37.497-8.347,58.764c0,138.888,97.696,255.648,97.696,255.648
                        l18.473-24.589l34.964,23.954c6.999-41.346-13.994-79.514-13.994-79.514c71.027,30.303,107.509,4.452,107.509,4.452
                        c-28.752,33.39-5.091,76.969-5.091,76.969l26.719-24.173l18.449,23.537c21.946-36.258,43.484-71.265,72.522-85.237
                        c27.883-13.416,52.8-3.182,52.8-3.182c13.996-18.447-8.904-36.258-15.893-37.128c54.059,5.323,87.139-12.668,89.049-18.213
                        C696.034,447.218,692.534,401.419,677.903,373.749z M502.084,345.125c22.663-6.687,39.124,18.844,37.454,41.743
                        c-5.008-9.063-15.902-25.84-26.715-24.886c-15.271,1.749-7.16,28.942-7.16,28.942C485.863,377.327,487.533,349.418,502.084,345.125
                        z M286.19,295.031c-3.262-3.47-6.838-6.36-13.836-13.358c31.488-45.8,91.606-46.277,91.606-46.277l2.863,19.083
                        C366.823,254.479,313.386,258.773,286.19,295.031z M398.967,488.967c-59.222-30.209-66.961-114.093-18.772-128.495
                        c39.926-11.931,59.199,20.212,92.412,76.52c33.209,56.308,85.189,75.076,85.189,75.076
                        C515.921,513.515,469.719,525.063,398.967,488.967z M614.446,419.07c-3.959-19.869,9.084-32.807,19.217-25.112
                        c0.873,0.665-6.396,37.11,13.254,65.029C633.372,455.255,618.217,438.023,614.446,419.07z M675.516,435.768
                        c-0.465,6.358-3.424,14.536-4.92,16.969c-0.479-14.79-6.393-45.492-15.746-63.861C654.85,388.875,680.057,373.761,675.516,435.768z
                        "></path>
                    <path d="M365.037,402.403c27.567-13.125,12.045,38.07,27.881,48.111c12.945,8.209,23.047-4.418,38.197-2.84
                        c20.359,2.121-2.091,41.611,13.578,46.086c8.838,2.525,14.795-6.962,25.569-6.314c9.432,0.567,12.022,21.632,43.353,16.226
                        c-27.194-9.701-25.13-29.739-39.441-30.692c-8.155-0.543-23.544,13.344-22.902-3.816c0.548-14.623,7.19-38.326-9.541-38.643
                        c-12.629-0.238-28.241,12.361-40.556,6.679c-7.259-4.735-4.154-28.571-6.68-42.459C392.285,373.59,371.455,382.017,365.037,402.403
                        z"></path>
                </g>
            </svg>
