<svg version="1.1" id="Layer_1" xmlns="http://www.w3.org/2000/svg" xmlns:xlink="http://www.w3.org/1999/xlink" x="0px" y="0px" width="800px" height="800px" viewBox="0 0 800 800" enable-background="new 0 0 800 800" xml:space="preserve">
                <g>
					<path d="M308.015,246.601c0,0-1.267-29.243-52.349-39.566c-33.442-6.756-62.294-15.742-88.264-33.544
                        c0,0,3.167,38.144,36.104,54.039C237,243.692,285.846,235.159,308.015,246.601z"></path>
                    <path d="M206.766,391.599c-9.155-18.793-29.594-33.318-62.272-42.302c-21.85-5.188-33.763-11.141-34.505-12.467
                        C114.066,386.434,169.254,380.438,206.766,391.599z"></path>
                    <path d="M274.693,495.894c0,0-27.844-26.265-78.78-28.494C201.801,477.345,205.437,498.204,274.693,495.894z"></path>
                    <g>
						<path d="M575.969,386.782c-1.421,25.858,12.481,39.098,20.901,39.098c33.727,0,58.428-61.984,17.578-75.812
                            C610.17,349.114,579.293,346.253,575.969,386.782z"></path>
                        <path d="M494.892,389.007c-13.976-8.114-21.509-16.148-30.401-22.251c-15.529-10.648-31.379-16.53-43.095-7.627
                            c12.43,4.302,15.291,13.407,19.868,18.945c-14.236-4.994-30.752-1.699-50.272-7.185c1.267,12.398,12.469,26.223,55.75,29.563
                            c24.716,1.908,35.802,8.583,38.65,12.714c0,0-28.799-5.229-46.262,0.755c-2.319,4.685-2.883,10.521-0.847,17.539
                            c8.579,29.527,36.702,30.798,36.702,30.798c18.485,1.926,44.374-4.034,47.7-17.861c0.012-0.045,0.012-0.093,0.02-0.137
                            l0.062,0.058C524.979,430.649,527.198,407.762,494.892,389.007z"></path>
                        <path d="M583.726,436.051c-10.452-7.627-17.1-16.687-20.903-21.455c-7.264-9.113-15.672,2.859-17.099,18.118
                            c0,0-3.801,39.099,13.167,50.895c14.313,9.95,18.114-4.037,18.325-16.168c0.206-12.129-1.501-4.523,7.912-1.636
                            C594.54,468.692,607.284,453.249,583.726,436.051z"></path>
                        <path d="M689.979,365.485c1.268-57.217-34.203-91.547-76.007-118.25c-54.239-34.645-123.829-44.819-156.134-79.15
                            c-2.197,20.694,1.753,36.773,9.271,49.499c-48.344-11.672-72.868-29.302-100.504-51.406
                            c-60.806-48.634-118.762-17.165-118.762-17.165s55.105,13.35,79.807,75.335c6.682,16.761,10.253,35.933,17.25,51.555
                            c-11.6-6.132-29.072-10.572-56.204-9.595c-79.061,2.847-135.862,10.172-177.666-13.987c0,0,5.699,54.993,64.605,86.461
                            c63.79,34.079,88.358,45.773,102.481,78.893c-12.697-11.184-32.927-6.833-47.375-5.781c-43.705,3.178-66.506-8.265-66.506-8.265
                            s7.601,38.78,71.256,53.402c56.597,13,44.327,35.729,96.917,46.659c-13.721,1.188-32.701,7.799-56.063,5.79
                            c0,0,21.694,41.593,76.958,40.052c34.204-0.954,79.808,5.722,98.828,39.099c30.412,82.963,155.508,90.911,196.044,42.595
                            c39.305-46.846-38.32-89.322-14.568-92.183c37.317-4.496,41.17-55.628,14.568-75.655
                            C670.978,443.682,690.613,407.442,689.979,365.485z M626.638,602.618c-2.956,20.009-17.155,33.179-61.438,27.337
                            c-44.283-5.84-59.696-14.619-70.308-39.417c-15.909-37.183-32.935-40.688-32.935-40.688c-1.742,0.636-4.144-14.378,12.984-12.715
                            c14.725,1.43,24.199,13.609,33.891,33.059c8.232,16.53,20.262,30.833,27.864,27.973c7.548-2.841,9.549-15.205,17.735-15.894
                            c12.702-1.067,4.61,17.653,11.404,23.523c6.793,5.867,8.677-21.61,18.366-21.616c7.871-0.004,10.512,10.79,12.033,19.708
                            c1.525,8.915,8.868,1.908,12.668-8.265C613.291,583.88,629.86,580.835,626.638,602.618z M620.305,449.402
                            c0,0-15.604,11.944,1.899,25.749c22.17,17.482,13.138,34.072,0.347,28.055c-13.011-6.122-16.712-4.325-16.181,11.042
                            c0.529,15.365-15.518,13.376-26.857,2.646c-11.337-10.731-6.263,2.941-7.424,13.75c-1.158,10.811-13.839,15.75-23.719-3.908
                            c-9.875-19.659-8.742-0.523-9.602,12.169c-0.858,12.694-22.136,18.05-26.681-4.397c-4.551-22.445-4.064-25.421-4.064-25.421
                            s-46.521,21.975-105.031-18.834c-58.482-40.808-38.321-119.386-0.283-158.346c8.387-8.592,21.132-17.441,36.416-25.565
                            l0.003,0.019c12.053-5.086,23.909,10.435,29.795,22.251c7.599,15.257,13.351,24.299,26.6,17.165
                            c12.518-6.742,13.015-21.24,23.074-6.293c7.398,10.994,15.564,34.902,23.167,36.171c6.966,1.909,0.636-62.938-13.935-75.017
                            c-14.934-12.38-34.834,21.616-37.371,10.808c-3.404-8.203-3.905-16.691-5.384-24.482c48.51-15.898,103.41-20.571,131.43,4.137
                            C664.666,333.572,666.861,407.442,620.305,449.402z"></path>
					</g>
				</g>
            </svg>
