<svg xmlns="http://www.w3.org/2000/svg" width="98" height="98"><style>.st0,.st1{fill:none;stroke:#000;stroke-width:2;stroke-linecap:round;stroke-linejoin:round;stroke-miterlimit:10}</style><path class="st0" d="M33.5 37.8h37.7L69.8 25c-.1-.9-.9-1.6-1.8-1.6H29.9c-.9 0-1.7.7-1.8 1.7l-1.7 51.3c0 1.5 1.1 2.7 2.6 2.7h39.8c1.5 0 2.7-1.2 2.6-2.7l-.3-38.7"/><path class="st0" d="M59.7 30.8v-4.2c0-5.6-4.6-10.2-10.2-10.2h-.2c-5.6 0-10.2 4.6-10.2 10.2v4.2"/><circle class="st1" cx="49" cy="57.8" r="9.9"/><path class="st1" d="M43.3 57.5l4.3 4.2L59.3 50"/><path class="st0" d="M49 1v9m0 78v9m48-48h-9m-78 0H1M25 7.4l2.5 4.4m43 74.4l2.5 4.4M90.6 25l-4.4 2.5m-74.4 43L7.4 73m0-48l4.4 2.5m74.4 43l4.4 2.5M73 7.4l-2.5 4.4m-43 74.4L25 90.6"/></svg>