<?xml version="1.0" encoding="UTF-8"?><!DOCTYPE svg PUBLIC "-//W3C//DTD SVG 1.1//EN" "http://www.w3.org/Graphics/SVG/1.1/DTD/svg11.dtd"><svg xmlns="http://www.w3.org/2000/svg" xmlns:xlink="http://www.w3.org/1999/xlink" xmlns:sketch="http://www.bohemiancoding.com/sketch/ns"><defs>
        <path id="path0_fill" d="M 15.6718 1.49826C 15.095 1.76046 14.4732 1.93276 13.829 2.01517C 14.4882 1.61813 14.9976 0.988855 15.2374 0.232231C 14.6156 0.606797 13.9264 0.868994 13.1997 1.01882C 12.6079 0.374566 11.7764 0 10.8325 0C 9.07199 0 7.63366 1.43833 7.63366 3.21378C 7.63366 3.46848 7.66362 3.7157 7.71606 3.94793C 5.04915 3.81308 2.6744 2.53207 1.09373 0.591815C 0.816554 1.06377 0.659237 1.61813 0.659237 2.20245C 0.659237 3.31866 1.22109 4.30751 2.09008 4.86936C 1.5582 4.86936 1.06377 4.71953 0.629271 4.49479C 0.629271 4.49479 0.629271 4.49479 0.629271 4.51727C 0.629271 6.07546 1.73799 7.37895 3.20629 7.67112C 2.9366 7.74603 2.65193 7.78349 2.35977 7.78349C 2.1575 7.78349 1.95524 7.76101 1.76046 7.72356C 2.16499 8.98959 3.34113 9.9335 4.75699 9.95597C 3.66326 10.825 2.27736 11.3344 0.764115 11.3344C 0.50941 11.3344 0.254705 11.3194 -2.85771e-08 11.2894C 1.42335 12.2034 3.11639 12.7353 4.92929 12.7353C 10.8325 12.7353 14.0762 7.83592 14.0762 3.58834C 14.0762 3.44601 14.0762 3.31116 14.0687 3.16883C 14.698 2.71935 15.2374 2.15001 15.6718 1.49826Z"/>
    </defs><symbol id="icon-account" viewBox="0 0 26 26">
    <!-- Generator: Sketch 49.3 (51167) - http://www.bohemiancoding.com/sketch -->
    <title>account</title>
    <desc>Created with Sketch.</desc>
    
    <g id="Page-1" stroke-width="1" fill-rule="evenodd">
        <g id="account" fill-rule="nonzero">
            <path d="M18.72,1.04 C20.3892,1.04 21.9544,1.69 23.1348,2.8652 C24.3152,4.0404 24.96,5.6108 24.96,7.28 L24.96,18.72 C24.96,20.3892 24.31,21.9544 23.1348,23.1348 C21.9544,24.31 20.3892,24.96 18.72,24.96 L7.28,24.96 C5.6108,24.96 4.0456,24.31 2.8652,23.1348 C1.69,21.9544 1.04,20.3892 1.04,18.72 L1.04,7.28 C1.04,5.6108 1.69,4.0456 2.8652,2.8652 C4.0404,1.6848 5.6108,1.04 7.28,1.04 L18.72,1.04 Z M18.72,0 L7.28,0 C3.2604,0 0,3.2604 0,7.28 L0,18.72 C0,22.7396 3.2604,26 7.28,26 L18.72,26 C22.7396,26 26,22.7396 26,18.72 L26,7.28 C26,3.2604 22.7396,0 18.72,0 Z" id="Shape"/>
            <path d="M13,16.6244 C9.6616,16.6244 6.9472,13.91 6.9472,10.5716 C6.9472,7.2332 9.6616,4.5188 13,4.5188 C16.3384,4.5188 19.0528,7.2332 19.0528,10.5716 C19.0528,13.91 16.3384,16.6244 13,16.6244 Z M13,5.5588 C10.2336,5.5588 7.9872,7.8104 7.9872,10.5716 C7.9872,13.3328 10.2388,15.5844 13,15.5844 C15.7612,15.5844 18.0128,13.3328 18.0128,10.5716 C18.0128,7.8104 15.7664,5.5588 13,5.5588 Z" id="Shape"/>
            <path d="M15.2464,16.0888 L10.7536,16.0888 C6.734,16.0888 3.4736,19.3492 3.4736,23.3688 L3.4736,24.9288 C3.8012,25.1316 4.1496,25.3084 4.5136,25.4592 L4.5136,23.374 C4.5136,21.7048 5.1636,20.1396 6.3388,18.9592 C7.5192,17.7788 9.0844,17.134 10.7536,17.134 L15.2464,17.134 C16.9156,17.134 18.4808,17.784 19.6612,18.9592 C20.8416,20.1396 21.4864,21.7048 21.4864,23.374 L21.4864,25.4592 C21.8504,25.3084 22.1988,25.1316 22.5264,24.9288 L22.5264,23.3688 C22.5264,19.3492 19.266,16.0888 15.2464,16.0888 Z" id="Shape"/>
        </g>
    </g>
</symbol><symbol id="icon-arrow_right" viewBox="0 0 31 22">
    <path fill-rule="evenodd" d="M30.000,11.606 L30.000,11.686 L30.001,11.687 L30.000,11.688 L30.000,12.000 L29.688,12.000 L19.688,22.000 L18.999,21.313 L28.312,12.000 L-0.000,12.000 L-0.000,10.999 L28.293,10.999 L18.843,1.550 L19.550,0.843 L29.706,10.999 L30.000,10.999 L30.000,11.293 L30.157,11.450 L30.000,11.606 Z"/>
</symbol><symbol id="icon-cart" viewBox="0 0 24 18">
    <!-- Generator: Sketch 49.3 (51167) - http://www.bohemiancoding.com/sketch -->
    <title>cart</title>
    <desc>Created with Sketch.</desc>
    
    <g id="Page-1" stroke-width="1" fill-rule="evenodd">
        <g id="cart" fill-rule="nonzero">
            <path d="M10,16.5 C10,17.329 9.328,18 8.5,18 C7.672,18 7,17.329 7,16.5 C7,15.672 7.672,15 8.5,15 C9.328,15 10,15.672 10,16.5 Z M13.5,15 C12.672,15 12,15.671 12,16.5 C12,17.329 12.672,18 13.5,18 C14.328,18 15,17.329 15,16.5 C15,15.672 14.328,15 13.5,15 Z M19.804,0 L16.373,12 L14.271,12 L16.813,3 L3.55271368e-15,3 L4.615,14 L17.854,14 L21.328,2 L23.257,2 L24,0 L19.804,0 Z" id="Shape"/>
        </g>
    </g>
</symbol><symbol id="icon-checked" viewBox="0 0 17 12">
    <path fill-rule="evenodd" d="M16.653,1.767 L6.283,11.678 C6.013,11.928 5.643,12.006 5.293,11.949 C4.944,12.006 4.574,11.928 4.304,11.678 L0.312,7.902 C-0.128,7.494 -0.128,6.832 0.312,6.424 C0.752,6.016 1.465,6.016 1.905,6.424 L5.290,9.627 L15.060,0.289 C15.500,-0.119 16.213,-0.119 16.653,0.289 C17.093,0.697 17.093,1.359 16.653,1.767 Z"/>
</symbol><symbol id="icon-close" viewBox="0 0 14 14">
    <path fill-rule="evenodd" stroke-width="1px" stroke-linecap="butt" stroke-linejoin="miter" d="M12.657,11.950 L11.950,12.657 L7.000,7.707 L2.050,12.657 L1.343,11.950 L6.293,7.000 L1.343,2.050 L2.050,1.343 L7.000,6.293 L11.950,1.343 L12.657,2.050 L7.707,7.000 L12.657,11.950 Z"/>
</symbol><symbol id="icon-facebook" viewBox="0 0 10 19">
    <!-- Generator: Sketch 3.3.3 (12072) - http://www.bohemiancoding.com/sketch -->
    <title>facebook</title>
    <desc>Created with Sketch.</desc>
    
    <g id="Page-1" stroke-width="1" fill-rule="evenodd" sketch:type="MSPage">
        <path d="M9.76616526,0.156928571 L9.76616526,3.10335714 L8.01393311,3.10335714 C7.37405216,3.10335714 6.94250454,3.23728571 6.71929026,3.50514286 C6.49607597,3.773 6.38446883,4.17478571 6.38446883,4.7105 L6.38446883,6.819875 L9.65455811,6.819875 L9.21929026,10.1234464 L6.38446883,10.1234464 L6.38446883,18.5944286 L2.96929026,18.5944286 L2.96929026,10.1234464 L0.123308113,10.1234464 L0.123308113,6.819875 L2.96929026,6.819875 L2.96929026,4.38683929 C2.96929026,3.00291071 3.35619502,1.92962202 4.13000454,1.16697321 C4.90381407,0.404324405 5.93432002,0.023 7.2215224,0.023 C8.3152724,0.023 9.16348668,0.0676428571 9.76616526,0.156928571 L9.76616526,0.156928571 Z" id="facebook" sketch:type="MSShapeGroup"/>
    </g>
</symbol><symbol id="icon-fb" viewBox="0 0 17 32">
    <path d="M10.6667 10.4889V7.46667C10.6667 6.04444 10.8444 5.33333 12.9778 5.33333H16V0H11.2C5.51112 0 3.55556 2.66667 3.55556 7.11111V10.6667H0V16H3.55556V32H10.6667V16H15.4667L16.1778 10.6667H10.6667V10.4889Z"/>
</symbol><symbol id="icon-heart" viewBox="0 0 24 22">
    <!-- Generator: Sketch 49.3 (51167) - http://www.bohemiancoding.com/sketch -->
    <title>heart</title>
    <desc>Created with Sketch.</desc>
    
    <g id="Page-1" stroke-width="1" fill-rule="evenodd">
        <g id="heart" fill-rule="nonzero">
            <path d="M11.9875163,21.9696487 C24.4414564,12.1981898 23.972723,8.72393484 23.972723,6.01416431 C23.972723,3.30439377 21.7263667,0.0303512748 17.9797139,0.0303512748 C14.2330611,0.0303512748 11.9875163,4.01983003 11.9875163,4.01983003 C11.9875163,4.01983003 9.7420026,0.0303512748 5.9953186,0.0303512748 C2.24863459,0.0303512748 0.00230949285,3.30439377 0.00230949285,6.01416431 C0.00230949285,8.72393484 -0.466423927,12.1981898 11.9875163,21.9696487 Z" id="Shape"/>
        </g>
    </g>
</symbol><symbol id="icon-inst" viewBox="0 0 26 26">
    <!-- Generator: Sketch 49.3 (51167) - http://www.bohemiancoding.com/sketch -->
    <title>inst</title>
    <desc>Created with Sketch.</desc>
    
    <g id="Page-1" stroke-width="1" fill-rule="evenodd">
        <g id="inst" fill-rule="nonzero">
            <path d="M18.72,1.04 C20.3892,1.04 21.9544,1.69 23.1348,2.8652 C24.3152,4.0404 24.96,5.6108 24.96,7.28 L24.96,18.72 C24.96,20.3892 24.31,21.9544 23.1348,23.1348 C21.9544,24.31 20.3892,24.96 18.72,24.96 L7.28,24.96 C5.6108,24.96 4.0456,24.31 2.8652,23.1348 C1.69,21.9544 1.04,20.3892 1.04,18.72 L1.04,7.28 C1.04,5.6108 1.69,4.0456 2.8652,2.8652 C4.0404,1.6848 5.6108,1.04 7.28,1.04 L18.72,1.04 Z M18.72,0 L7.28,0 C3.2604,0 0,3.2604 0,7.28 L0,18.72 C0,22.7396 3.2604,26 7.28,26 L18.72,26 C22.7396,26 26,22.7396 26,18.72 L26,7.28 C26,3.2604 22.7396,0 18.72,0 Z" id="Shape"/>
            <path d="M13,8.5072 C15.4804,8.5072 17.4928,10.5248 17.4928,13 C17.4928,15.4752 15.4752,17.4928 13,17.4928 C10.5248,17.4928 8.5072,15.4752 8.5072,13 C8.5072,10.5248 10.5196,8.5072 13,8.5072 Z M13,7.4672 C9.9424,7.4672 7.4672,9.9424 7.4672,13 C7.4672,16.0576 9.9424,18.5328 13,18.5328 C16.0576,18.5328 18.5328,16.0576 18.5328,13 C18.5328,9.9424 16.0576,7.4672 13,7.4672 Z" id="Shape"/>
            <path d="M19.9888,5.0388 C19.422,5.0388 18.9592,5.5016 18.9592,6.0684 C18.9592,6.6352 19.422,7.098 19.9888,7.098 C20.5556,7.098 21.0184,6.6352 21.0184,6.0684 C21.0184,5.4964 20.5608,5.0388 19.9888,5.0388 Z" id="Shape"/>
        </g>
    </g>
</symbol><symbol id="icon-logout" viewBox="0 0 21 18">
    <path fill-rule="evenodd" clip-rule="evenodd" d="M0.25 2C0.25 1.0335 1.0335 0.25 2 0.25H12.4444C13.4109 0.25 14.1944 1.0335 14.1944 2V5C14.1944 5.41421 13.8587 5.75 13.4444 5.75C13.0302 5.75 12.6944 5.41421 12.6944 5V2C12.6944 1.86193 12.5825 1.75 12.4444 1.75H2C1.86193 1.75 1.75 1.86193 1.75 2V16C1.75 16.1381 1.86193 16.25 2 16.25H12.4444C12.5825 16.25 12.6944 16.1381 12.6944 16V13C12.6944 12.5858 13.0302 12.25 13.4444 12.25C13.8587 12.25 14.1944 12.5858 14.1944 13V16C14.1944 16.9665 13.4109 17.75 12.4444 17.75H2C1.0335 17.75 0.25 16.9665 0.25 16V2ZM16.0253 4.91401C16.3182 4.62111 16.7931 4.62111 17.086 4.91401L19.9344 7.76245C20.6179 8.44587 20.6179 9.55391 19.9344 10.2373L17.086 13.0858C16.7931 13.3787 16.3182 13.3787 16.0253 13.0858C15.7324 12.7929 15.7324 12.318 16.0253 12.0251L18.3005 9.75H6.33328C5.91907 9.75 5.58328 9.41421 5.58328 9C5.58328 8.58579 5.91907 8.25 6.33328 8.25H18.3007L16.0253 5.97467C15.7324 5.68177 15.7324 5.2069 16.0253 4.91401Z"/>
</symbol><symbol id="icon-minus" viewBox="0 0 16 2">
    <path fill-rule="evenodd" stroke-width="1px" stroke-linecap="butt" stroke-linejoin="miter" d="M15.500,0.500 L15.500,1.500 L0.500,1.500 L0.500,0.500 L15.500,0.500 Z"/>
</symbol><symbol id="icon-plus" viewBox="0 0 16 16">
    <path fill-rule="evenodd" stroke-width="1px" stroke-linecap="butt" stroke-linejoin="miter" d="M15.500,8.500 L8.500,8.500 L8.500,15.500 L7.500,15.500 L7.500,8.500 L0.500,8.500 L0.500,7.500 L7.500,7.500 L7.500,0.500 L8.500,0.500 L8.500,7.500 L15.500,7.500 L15.500,8.500 Z"/>
</symbol><symbol id="icon-tw" viewBox="0 0 17 14">
    <g id="Canvas" transform="translate(-6813 -1630)">
        <g id="Vector">
            <use xlink:href="#path0_fill" transform="translate(6813.63 1630.38)"/>
        </g>
    </g>
    
</symbol><symbol id="icon-vk" viewBox="0 0 26 26">
    <!-- Generator: Sketch 49.3 (51167) - http://www.bohemiancoding.com/sketch -->
    <title>vk</title>
    <desc>Created with Sketch.</desc>
    
    <g id="Page-1" stroke-width="1" fill-rule="evenodd">
        <g id="vk" fill-rule="nonzero">
            <path d="M18.72,1.04 C20.3892,1.04 21.9544,1.69 23.1348,2.8652 C24.3152,4.0404 24.96,5.6108 24.96,7.28 L24.96,18.72 C24.96,20.3892 24.31,21.9544 23.1348,23.1348 C21.9544,24.31 20.3892,24.96 18.72,24.96 L7.28,24.96 C5.6108,24.96 4.0456,24.31 2.8652,23.1348 C1.69,21.9544 1.04,20.3892 1.04,18.72 L1.04,7.28 C1.04,5.6108 1.69,4.0456 2.8652,2.8652 C4.0404,1.6848 5.6108,1.04 7.28,1.04 L18.72,1.04 Z M18.72,0 L7.28,0 C3.2604,0 0,3.2604 0,7.28 L0,18.72 C0,22.7396 3.2604,26 7.28,26 L18.72,26 C22.7396,26 26,22.7396 26,18.72 L26,7.28 C26,3.2604 22.7396,0 18.72,0 Z" id="Shape"/>
            <path d="M21.2576,8.9856 C21.3772,8.5852 21.2576,8.2888 20.6856,8.2888 L18.7928,8.2888 C18.3092,8.2888 18.0908,8.5436 17.9712,8.8244 C17.9712,8.8244 17.0092,11.1696 15.6468,12.6932 C15.2048,13.1352 15.0072,13.2756 14.7628,13.2756 C14.6432,13.2756 14.4664,13.1352 14.4664,12.7348 L14.4664,8.9856 C14.4664,8.502 14.326,8.2888 13.9256,8.2888 L10.9512,8.2888 C10.6496,8.2888 10.4676,8.5124 10.4676,8.7256 C10.4676,9.1832 11.1488,9.2872 11.2216,10.5716 L11.2216,13.3588 C11.2216,13.9724 11.1124,14.0816 10.8732,14.0816 C10.2336,14.0816 8.6736,11.726 7.748,9.0272 C7.566,8.502 7.384,8.294 6.9004,8.294 L5.0024,8.294 C4.4616,8.294 4.3524,8.5488 4.3524,8.8296 C4.3524,9.3288 4.992,11.8196 7.3424,15.106 C8.9076,17.3524 11.1072,18.5692 13.1144,18.5692 C14.3156,18.5692 14.4664,18.2988 14.4664,17.8308 L14.4664,16.1356 C14.4664,15.5948 14.5808,15.4856 14.9604,15.4856 C15.2412,15.4856 15.7248,15.626 16.8428,16.7076 C18.1272,17.992 18.3352,18.564 19.058,18.564 L20.956,18.564 C21.4968,18.564 21.7672,18.2936 21.6112,17.758 C21.4396,17.2276 20.826,16.4528 20.0148,15.5376 C19.5728,15.0176 18.9124,14.456 18.7096,14.1752 C18.4288,13.8164 18.5068,13.6552 18.7096,13.3328 C18.7096,13.338 21.0184,10.088 21.2576,8.9856 Z" id="Logo_1_"/>
        </g>
    </g>
</symbol><symbol id="icon-vk2" viewBox="0 0 22 13">
    <path d="M21.7999 11.4097C21.717 11.3276 21.3853 10.5064 19.6439 8.94622C17.8195 7.2218 18.0683 7.55026 20.2243 4.59412C21.5511 2.78759 22.1316 1.72009 21.9657 1.2274C21.7999 0.816825 20.8048 0.89894 20.8048 0.89894L17.4878 0.981056C17.4878 0.981056 17.2391 0.898941 17.0732 1.06317C16.9074 1.14529 16.7415 1.39163 16.7415 1.39163C16.7415 1.39163 16.244 2.70547 15.5806 3.9372C14.0879 6.40065 13.5075 6.48277 13.2587 6.40065C12.6782 5.99008 12.8441 4.92258 12.8441 4.18354C12.8441 1.80221 13.2587 0.816826 12.0977 0.57048C11.766 0.488365 11.5173 0.40625 10.5222 0.40625C9.36124 0.40625 8.36614 0.40625 7.78567 0.652595C7.37104 0.816826 7.12229 1.2274 7.28814 1.2274C7.53691 1.30952 8.03444 1.39163 8.28322 1.72009C8.61491 2.21278 8.61491 3.19816 8.61491 3.19816C8.61491 3.19816 8.8637 5.99008 8.11738 6.40065C7.70276 6.647 7.03935 6.15431 5.79549 3.9372C5.13209 2.78759 4.63455 1.55586 4.63455 1.55586C4.63455 1.55586 4.55164 1.30952 4.38579 1.14529C4.13701 0.981056 3.88824 0.89894 3.88824 0.89894L0.737095 0.981056C0.737095 0.981056 0.239559 0.981056 0.0737105 1.2274C-0.0921382 1.39163 0.0737105 1.80221 0.0737105 1.80221C0.0737105 1.80221 2.47851 7.46815 5.29794 10.3422C7.95151 12.8877 10.8539 12.7235 10.8539 12.7235H12.0977C12.0977 12.7235 12.5124 12.6414 12.6782 12.4772C12.8441 12.2308 12.8441 11.9024 12.8441 11.9024C12.8441 11.9024 12.7611 10.1779 13.5904 9.9316C14.4196 9.68526 15.4147 11.656 16.4927 12.3129C17.322 12.8877 17.9854 12.7235 17.9854 12.7235L20.8877 12.6414C20.9707 12.7235 22.5462 12.6414 21.7999 11.4097Z"/>
</symbol></svg>