<?xml version="1.0" encoding="UTF-8"?>
<svg width="26px" height="26px" viewBox="0 0 26 26" version="1.1" xmlns="http://www.w3.org/2000/svg" xmlns:xlink="http://www.w3.org/1999/xlink">
    <!-- Generator: Sketch 49.3 (51167) - http://www.bohemiancoding.com/sketch -->
    <title>account</title>
    <desc>Created with Sketch.</desc>
    <defs></defs>
    <g id="Page-1" stroke="none" stroke-width="1" fill="none" fill-rule="evenodd">
        <g id="account" fill="#000000" fill-rule="nonzero">
            <path d="M18.72,1.04 C20.3892,1.04 21.9544,1.69 23.1348,2.8652 C24.3152,4.0404 24.96,5.6108 24.96,7.28 L24.96,18.72 C24.96,20.3892 24.31,21.9544 23.1348,23.1348 C21.9544,24.31 20.3892,24.96 18.72,24.96 L7.28,24.96 C5.6108,24.96 4.0456,24.31 2.8652,23.1348 C1.69,21.9544 1.04,20.3892 1.04,18.72 L1.04,7.28 C1.04,5.6108 1.69,4.0456 2.8652,2.8652 C4.0404,1.6848 5.6108,1.04 7.28,1.04 L18.72,1.04 Z M18.72,0 L7.28,0 C3.2604,0 0,3.2604 0,7.28 L0,18.72 C0,22.7396 3.2604,26 7.28,26 L18.72,26 C22.7396,26 26,22.7396 26,18.72 L26,7.28 C26,3.2604 22.7396,0 18.72,0 Z" id="Shape"></path>
            <path d="M13,16.6244 C9.6616,16.6244 6.9472,13.91 6.9472,10.5716 C6.9472,7.2332 9.6616,4.5188 13,4.5188 C16.3384,4.5188 19.0528,7.2332 19.0528,10.5716 C19.0528,13.91 16.3384,16.6244 13,16.6244 Z M13,5.5588 C10.2336,5.5588 7.9872,7.8104 7.9872,10.5716 C7.9872,13.3328 10.2388,15.5844 13,15.5844 C15.7612,15.5844 18.0128,13.3328 18.0128,10.5716 C18.0128,7.8104 15.7664,5.5588 13,5.5588 Z" id="Shape"></path>
            <path d="M15.2464,16.0888 L10.7536,16.0888 C6.734,16.0888 3.4736,19.3492 3.4736,23.3688 L3.4736,24.9288 C3.8012,25.1316 4.1496,25.3084 4.5136,25.4592 L4.5136,23.374 C4.5136,21.7048 5.1636,20.1396 6.3388,18.9592 C7.5192,17.7788 9.0844,17.134 10.7536,17.134 L15.2464,17.134 C16.9156,17.134 18.4808,17.784 19.6612,18.9592 C20.8416,20.1396 21.4864,21.7048 21.4864,23.374 L21.4864,25.4592 C21.8504,25.3084 22.1988,25.1316 22.5264,24.9288 L22.5264,23.3688 C22.5264,19.3492 19.266,16.0888 15.2464,16.0888 Z" id="Shape"></path>
        </g>
    </g>
</svg>