<?xml version="1.0" encoding="UTF-8"?>
<svg width="26px" height="26px" viewBox="0 0 26 26" version="1.1" xmlns="http://www.w3.org/2000/svg" xmlns:xlink="http://www.w3.org/1999/xlink">
    <!-- Generator: Sketch 49.3 (51167) - http://www.bohemiancoding.com/sketch -->
    <title>inst</title>
    <desc>Created with Sketch.</desc>
    <defs></defs>
    <g id="Page-1" stroke="none" stroke-width="1" fill="none" fill-rule="evenodd">
        <g id="inst" fill="#000000" fill-rule="nonzero">
            <path d="M18.72,1.04 C20.3892,1.04 21.9544,1.69 23.1348,2.8652 C24.3152,4.0404 24.96,5.6108 24.96,7.28 L24.96,18.72 C24.96,20.3892 24.31,21.9544 23.1348,23.1348 C21.9544,24.31 20.3892,24.96 18.72,24.96 L7.28,24.96 C5.6108,24.96 4.0456,24.31 2.8652,23.1348 C1.69,21.9544 1.04,20.3892 1.04,18.72 L1.04,7.28 C1.04,5.6108 1.69,4.0456 2.8652,2.8652 C4.0404,1.6848 5.6108,1.04 7.28,1.04 L18.72,1.04 Z M18.72,0 L7.28,0 C3.2604,0 0,3.2604 0,7.28 L0,18.72 C0,22.7396 3.2604,26 7.28,26 L18.72,26 C22.7396,26 26,22.7396 26,18.72 L26,7.28 C26,3.2604 22.7396,0 18.72,0 Z" id="Shape"></path>
            <path d="M13,8.5072 C15.4804,8.5072 17.4928,10.5248 17.4928,13 C17.4928,15.4752 15.4752,17.4928 13,17.4928 C10.5248,17.4928 8.5072,15.4752 8.5072,13 C8.5072,10.5248 10.5196,8.5072 13,8.5072 Z M13,7.4672 C9.9424,7.4672 7.4672,9.9424 7.4672,13 C7.4672,16.0576 9.9424,18.5328 13,18.5328 C16.0576,18.5328 18.5328,16.0576 18.5328,13 C18.5328,9.9424 16.0576,7.4672 13,7.4672 Z" id="Shape"></path>
            <path d="M19.9888,5.0388 C19.422,5.0388 18.9592,5.5016 18.9592,6.0684 C18.9592,6.6352 19.422,7.098 19.9888,7.098 C20.5556,7.098 21.0184,6.6352 21.0184,6.0684 C21.0184,5.4964 20.5608,5.0388 19.9888,5.0388 Z" id="Shape"></path>
        </g>
    </g>
</svg>