<svg width="21" height="18" viewBox="0 0 21 18" fill="none" xmlns="http://www.w3.org/2000/svg">
    <path fill-rule="evenodd" clip-rule="evenodd" d="M0.25 2C0.25 1.0335 1.0335 0.25 2 0.25H12.4444C13.4109 0.25 14.1944 1.0335 14.1944 2V5C14.1944 5.41421 13.8587 5.75 13.4444 5.75C13.0302 5.75 12.6944 5.41421 12.6944 5V2C12.6944 1.86193 12.5825 1.75 12.4444 1.75H2C1.86193 1.75 1.75 1.86193 1.75 2V16C1.75 16.1381 1.86193 16.25 2 16.25H12.4444C12.5825 16.25 12.6944 16.1381 12.6944 16V13C12.6944 12.5858 13.0302 12.25 13.4444 12.25C13.8587 12.25 14.1944 12.5858 14.1944 13V16C14.1944 16.9665 13.4109 17.75 12.4444 17.75H2C1.0335 17.75 0.25 16.9665 0.25 16V2ZM16.0253 4.91401C16.3182 4.62111 16.7931 4.62111 17.086 4.91401L19.9344 7.76245C20.6179 8.44587 20.6179 9.55391 19.9344 10.2373L17.086 13.0858C16.7931 13.3787 16.3182 13.3787 16.0253 13.0858C15.7324 12.7929 15.7324 12.318 16.0253 12.0251L18.3005 9.75H6.33328C5.91907 9.75 5.58328 9.41421 5.58328 9C5.58328 8.58579 5.91907 8.25 6.33328 8.25H18.3007L16.0253 5.97467C15.7324 5.68177 15.7324 5.2069 16.0253 4.91401Z" fill="#667F8E"/>
</svg>
