<svg width="17" height="14" viewBox="0 0 17 14" version="1.1" xmlns="http://www.w3.org/2000/svg"
     xmlns:xlink="http://www.w3.org/1999/xlink">
    <g id="Canvas" transform="translate(-6813 -1630)">
        <g id="Vector">
            <use xlink:href="#path0_fill" transform="translate(6813.63 1630.38)" fill="#FFFFFF"/>
        </g>
    </g>
    <defs>
        <path id="path0_fill"
              d="M 15.6718 1.49826C 15.095 1.76046 14.4732 1.93276 13.829 2.01517C 14.4882 1.61813 14.9976 0.988855 15.2374 0.232231C 14.6156 0.606797 13.9264 0.868994 13.1997 1.01882C 12.6079 0.374566 11.7764 0 10.8325 0C 9.07199 0 7.63366 1.43833 7.63366 3.21378C 7.63366 3.46848 7.66362 3.7157 7.71606 3.94793C 5.04915 3.81308 2.6744 2.53207 1.09373 0.591815C 0.816554 1.06377 0.659237 1.61813 0.659237 2.20245C 0.659237 3.31866 1.22109 4.30751 2.09008 4.86936C 1.5582 4.86936 1.06377 4.71953 0.629271 4.49479C 0.629271 4.49479 0.629271 4.49479 0.629271 4.51727C 0.629271 6.07546 1.73799 7.37895 3.20629 7.67112C 2.9366 7.74603 2.65193 7.78349 2.35977 7.78349C 2.1575 7.78349 1.95524 7.76101 1.76046 7.72356C 2.16499 8.98959 3.34113 9.9335 4.75699 9.95597C 3.66326 10.825 2.27736 11.3344 0.764115 11.3344C 0.50941 11.3344 0.254705 11.3194 -2.85771e-08 11.2894C 1.42335 12.2034 3.11639 12.7353 4.92929 12.7353C 10.8325 12.7353 14.0762 7.83592 14.0762 3.58834C 14.0762 3.44601 14.0762 3.31116 14.0687 3.16883C 14.698 2.71935 15.2374 2.15001 15.6718 1.49826Z"/>
    </defs>
</svg>
