<?xml version="1.0" encoding="UTF-8"?>
<svg width="26px" height="26px" viewBox="0 0 26 26" version="1.1" xmlns="http://www.w3.org/2000/svg" xmlns:xlink="http://www.w3.org/1999/xlink">
    <!-- Generator: Sketch 49.3 (51167) - http://www.bohemiancoding.com/sketch -->
    <title>vk</title>
    <desc>Created with Sketch.</desc>
    <defs></defs>
    <g id="Page-1" stroke="none" stroke-width="1" fill="none" fill-rule="evenodd">
        <g id="vk" fill="#000000" fill-rule="nonzero">
            <path d="M18.72,1.04 C20.3892,1.04 21.9544,1.69 23.1348,2.8652 C24.3152,4.0404 24.96,5.6108 24.96,7.28 L24.96,18.72 C24.96,20.3892 24.31,21.9544 23.1348,23.1348 C21.9544,24.31 20.3892,24.96 18.72,24.96 L7.28,24.96 C5.6108,24.96 4.0456,24.31 2.8652,23.1348 C1.69,21.9544 1.04,20.3892 1.04,18.72 L1.04,7.28 C1.04,5.6108 1.69,4.0456 2.8652,2.8652 C4.0404,1.6848 5.6108,1.04 7.28,1.04 L18.72,1.04 Z M18.72,0 L7.28,0 C3.2604,0 0,3.2604 0,7.28 L0,18.72 C0,22.7396 3.2604,26 7.28,26 L18.72,26 C22.7396,26 26,22.7396 26,18.72 L26,7.28 C26,3.2604 22.7396,0 18.72,0 Z" id="Shape"></path>
            <path d="M21.2576,8.9856 C21.3772,8.5852 21.2576,8.2888 20.6856,8.2888 L18.7928,8.2888 C18.3092,8.2888 18.0908,8.5436 17.9712,8.8244 C17.9712,8.8244 17.0092,11.1696 15.6468,12.6932 C15.2048,13.1352 15.0072,13.2756 14.7628,13.2756 C14.6432,13.2756 14.4664,13.1352 14.4664,12.7348 L14.4664,8.9856 C14.4664,8.502 14.326,8.2888 13.9256,8.2888 L10.9512,8.2888 C10.6496,8.2888 10.4676,8.5124 10.4676,8.7256 C10.4676,9.1832 11.1488,9.2872 11.2216,10.5716 L11.2216,13.3588 C11.2216,13.9724 11.1124,14.0816 10.8732,14.0816 C10.2336,14.0816 8.6736,11.726 7.748,9.0272 C7.566,8.502 7.384,8.294 6.9004,8.294 L5.0024,8.294 C4.4616,8.294 4.3524,8.5488 4.3524,8.8296 C4.3524,9.3288 4.992,11.8196 7.3424,15.106 C8.9076,17.3524 11.1072,18.5692 13.1144,18.5692 C14.3156,18.5692 14.4664,18.2988 14.4664,17.8308 L14.4664,16.1356 C14.4664,15.5948 14.5808,15.4856 14.9604,15.4856 C15.2412,15.4856 15.7248,15.626 16.8428,16.7076 C18.1272,17.992 18.3352,18.564 19.058,18.564 L20.956,18.564 C21.4968,18.564 21.7672,18.2936 21.6112,17.758 C21.4396,17.2276 20.826,16.4528 20.0148,15.5376 C19.5728,15.0176 18.9124,14.456 18.7096,14.1752 C18.4288,13.8164 18.5068,13.6552 18.7096,13.3328 C18.7096,13.338 21.0184,10.088 21.2576,8.9856 Z" id="Logo_1_"></path>
        </g>
    </g>
</svg>