<svg width="22" height="13" viewBox="0 0 22 13" fill="none" xmlns="http://www.w3.org/2000/svg">
    <path d="M21.7999 11.4097C21.717 11.3276 21.3853 10.5064 19.6439 8.94622C17.8195 7.2218 18.0683 7.55026 20.2243 4.59412C21.5511 2.78759 22.1316 1.72009 21.9657 1.2274C21.7999 0.816825 20.8048 0.89894 20.8048 0.89894L17.4878 0.981056C17.4878 0.981056 17.2391 0.898941 17.0732 1.06317C16.9074 1.14529 16.7415 1.39163 16.7415 1.39163C16.7415 1.39163 16.244 2.70547 15.5806 3.9372C14.0879 6.40065 13.5075 6.48277 13.2587 6.40065C12.6782 5.99008 12.8441 4.92258 12.8441 4.18354C12.8441 1.80221 13.2587 0.816826 12.0977 0.57048C11.766 0.488365 11.5173 0.40625 10.5222 0.40625C9.36124 0.40625 8.36614 0.40625 7.78567 0.652595C7.37104 0.816826 7.12229 1.2274 7.28814 1.2274C7.53691 1.30952 8.03444 1.39163 8.28322 1.72009C8.61491 2.21278 8.61491 3.19816 8.61491 3.19816C8.61491 3.19816 8.8637 5.99008 8.11738 6.40065C7.70276 6.647 7.03935 6.15431 5.79549 3.9372C5.13209 2.78759 4.63455 1.55586 4.63455 1.55586C4.63455 1.55586 4.55164 1.30952 4.38579 1.14529C4.13701 0.981056 3.88824 0.89894 3.88824 0.89894L0.737095 0.981056C0.737095 0.981056 0.239559 0.981056 0.0737105 1.2274C-0.0921382 1.39163 0.0737105 1.80221 0.0737105 1.80221C0.0737105 1.80221 2.47851 7.46815 5.29794 10.3422C7.95151 12.8877 10.8539 12.7235 10.8539 12.7235H12.0977C12.0977 12.7235 12.5124 12.6414 12.6782 12.4772C12.8441 12.2308 12.8441 11.9024 12.8441 11.9024C12.8441 11.9024 12.7611 10.1779 13.5904 9.9316C14.4196 9.68526 15.4147 11.656 16.4927 12.3129C17.322 12.8877 17.9854 12.7235 17.9854 12.7235L20.8877 12.6414C20.9707 12.7235 22.5462 12.6414 21.7999 11.4097Z"
          fill="#888888"/>
</svg>
