<!-- Generator: Adobe Illustrator 22.0.1, SVG Export Plug-In  -->
<svg version="1.1"
	 xmlns="http://www.w3.org/2000/svg" xmlns:xlink="http://www.w3.org/1999/xlink" xmlns:a="http://ns.adobe.com/AdobeSVGViewerExtensions/3.0/"
	 x="0px" y="0px" width="98px" height="98px" viewBox="0 0 98 98" style="enable-background:new 0 0 98 98;" xml:space="preserve">
<style type="text/css">
	.st0{fill:none;stroke:#6CB152;stroke-width:2;stroke-linecap:round;stroke-linejoin:round;stroke-miterlimit:10;}
	.st1{fill:none;stroke:#6CB152;stroke-width:2;stroke-linecap:round;stroke-linejoin:round;stroke-miterlimit:10;}
</style>
<defs>
</defs>
<path class="st0" d="M33.5,37.8h37.7L69.8,25c-0.1-0.9-0.9-1.6-1.8-1.6H29.9c-0.9,0-1.7,0.7-1.8,1.7l-1.7,51.3
	c0,1.5,1.1,2.7,2.6,2.7h39.8c1.5,0,2.7-1.2,2.6-2.7l-0.3-38.7"/>
<path class="st0" d="M26.2,37.8"/>
<path class="st0" d="M59.7,30.8v-4.2c0-5.6-4.6-10.2-10.2-10.2h-0.2c-5.6,0-10.2,4.6-10.2,10.2v4.2"/>
<circle class="st1" cx="49" cy="57.8" r="9.9"/>
<polyline class="st1" points="43.3,57.5 47.6,61.7 59.3,50 "/>
<g>
	<g>
		<line class="st0" x1="49" y1="1" x2="49" y2="10"/>
		<line class="st0" x1="49" y1="88" x2="49" y2="97"/>
	</g>
	<g>
		<line class="st0" x1="97" y1="49" x2="88" y2="49"/>
		<line class="st0" x1="10" y1="49" x2="1" y2="49"/>
	</g>
	<g>
		<g>
			<line class="st0" x1="25" y1="7.4" x2="27.5" y2="11.8"/>
			<line class="st0" x1="70.5" y1="86.2" x2="73" y2="90.6"/>
		</g>
		<g>
			<line class="st0" x1="90.6" y1="25" x2="86.2" y2="27.5"/>
			<line class="st0" x1="11.8" y1="70.5" x2="7.4" y2="73"/>
		</g>
	</g>
	<g>
		<g>
			<line class="st0" x1="7.4" y1="25" x2="11.8" y2="27.5"/>
			<line class="st0" x1="86.2" y1="70.5" x2="90.6" y2="73"/>
		</g>
		<g>
			<line class="st0" x1="73" y1="7.4" x2="70.5" y2="11.8"/>
			<line class="st0" x1="27.5" y1="86.2" x2="25" y2="90.6"/>
		</g>
	</g>
</g>
</svg>

