<svg
        xmlns="http://www.w3.org/2000/svg"
        xmlns:xlink="http://www.w3.org/1999/xlink"
        width="12px" height="12px">
    <path fill-rule="evenodd"  fill="rgb(236, 52, 52)"
          d="M7.414,6.000 L11.536,10.121 C11.926,10.512 11.926,11.145 11.536,11.535 C11.145,11.926 10.512,11.926 10.121,11.535 L6.000,7.414 L1.879,11.536 C1.488,11.926 0.855,11.926 0.464,11.536 C0.074,11.145 0.074,10.512 0.464,10.121 L4.586,6.000 L0.465,1.879 C0.074,1.488 0.074,0.855 0.464,0.464 C0.855,0.074 1.488,0.074 1.879,0.464 L6.000,4.586 L10.121,0.464 C10.512,0.074 11.145,0.074 11.535,0.465 C11.926,0.855 11.926,1.488 11.535,1.879 L7.414,6.000 Z"/>
</svg>
